<svg width="28" height="27" viewBox="0 0 28 27" fill="none" xmlns="http://www.w3.org/2000/svg">
<path d="M7.72152 25.3931L0.666626 26.9608L2.23437 19.9059C1.23388 18.0349 0.666626 15.8975 0.666626 13.6275C0.666626 6.26366 6.63616 0.294128 14 0.294128C21.3637 0.294128 27.3333 6.26366 27.3333 13.6275C27.3333 20.9912 21.3637 26.9608 14 26.9608C11.73 26.9608 9.59249 26.3936 7.72152 25.3931ZM8.10763 22.5755L8.979 23.0415C10.5099 23.8601 12.2206 24.2941 14 24.2941C19.891 24.2941 24.6666 19.5185 24.6666 13.6275C24.6666 7.73642 19.891 2.96079 14 2.96079C8.10892 2.96079 3.33329 7.73642 3.33329 13.6275C3.33329 15.4068 3.76728 17.1175 4.58595 18.6484L5.05191 19.5197L4.17884 23.4485L8.10763 22.5755Z" fill="white"/>
</svg>
