<?xml version="1.0" encoding="UTF-8"?>
<svg xmlns="http://www.w3.org/2000/svg" width="180" height="41" fill="none">
  <path d="m75.083 38.394-2.065-6.347h-1.27l-2.065 6.347-2.062-6.355h-1.593l2.856 8.568h1.27l2.222-6.031 2.058 6.031h1.27l2.848-8.568h-1.58l-1.889 6.355zM1.734 35.698h43.184v1.268H1.734v-1.268zM55.235 3.486h2.858v18.882h-2.862V3.486h.004zm13.653 18.882h2.858v-7.933h9.844v-2.698h-9.854v-5.71H82.69V3.483H68.887l.001 18.884zm-58.103.314c6.035 0 10.955-4.917 10.955-10.948 0-5.868-4.92-8.568-8.572-8.568-7.145 0-7.621 6.983-7.621 6.983h.168s1.269-5.077 6.19-5.077c3.975 0 6.992 2.697 6.992 6.506 0 4.44-3.652 8.089-8.093 8.089-4.286 0-8.251-3.17-8.251-8.891 0-4.452 2.382-8.102 6.51-9.68V.94C3.822 1.73.01 6.337.01 11.72c-.158 6.031 4.765 10.95 10.796 10.95l-.021.012zM58.41 35.697c-1.586-.317-2.062-.634-2.062-1.269 0-.634.479-.953 1.437-.953.803 0 1.593.31 2.227.79l.8-1.1c-.795-.635-1.904-1.114-3.018-1.114-1.748 0-2.858.958-2.858 2.537s.946 2.07 2.849 2.536c1.58.324 1.903.634 1.903 1.269 0 .634-.634 1.113-1.424 1.113-1.114 0-1.903-.48-2.706-1.113l-.958 1.113a4.908 4.908 0 0 0 3.49 1.436c1.749 0 3.018-.945 3.018-2.536 0-1.748-.956-2.382-2.701-2.692l.003-.017zm-12.064-13.33-5.715-7.615c2.858-.79 4.762-2.848 4.762-5.553 0-3.48-2.849-5.862-6.98-5.862h-8.26v18.882H33V15.23h4.597l5.244 6.99 3.497.162.007-.015zM33.01 12.686v-6.66h5.24c2.699 0 4.286 1.113 4.286 3.175 0 2.061-1.748 3.332-4.285 3.332h-5.24v.153zm52.709 24.28h4.286v-1.427h-4.286v-2.063h4.762v-1.428h-6.19v8.41h6.19V39.19h-4.753l-.01-2.225zm33.179-33.64-8.572 19.042h3.017l2.221-4.918h9.206l2.066 4.918h3.175l-8.571-19.042h-2.542zm-2.38 11.583L120 6.82l3.484 8.1h-6.993l.026-.01zm23.489-6.504 6.034 8.886.311.476.31-.466 5.874-8.878v13.964h2.858V3.492h-2.699l-6.35 9.52-6.352-9.52h-2.694v18.882h2.7l.008-13.97zm0 27.292h39.998v1.268h-39.998v-1.268zm28.733-16.026v-5.552h9.841V11.42h-9.841V6.024h11.11V3.487H165.89v18.882h13.972v-2.702l-11.123.004zm-40.632 18.244-4.605-5.868h-1.429v8.41h1.588v-5.87l4.597 5.87h1.269v-8.41h-1.425l.005 5.868zM94.449 3.487H91.75v18.882h13.019v-2.697h-10.32V3.487zm16.988 33.48h4.286V35.54h-4.286v-2.064h4.762v-1.428h-6.194v8.41h6.352V39.19h-4.934l.014-2.222zM99.529 32.05h-3.184v8.408h3.176c2.697 0 4.444-1.902 4.444-4.284.158-2.222-1.748-4.126-4.447-4.126l.01.002zm0 7.139H97.78v-5.713h1.748c1.748 0 2.848 1.268 2.848 2.855.156 1.587-1.113 2.856-2.861 2.856l.013.002z" fill="#555"></path>
</svg>
