<svg width="28" height="27" viewBox="0 0 28 27" fill="none" xmlns="http://www.w3.org/2000/svg">
<path d="M14 0.294128C21.3637 0.294128 27.3333 6.26366 27.3333 13.6275C27.3333 20.9912 21.3637 26.9608 14 26.9608C6.63616 26.9608 0.666626 20.9912 0.666626 13.6275C0.666626 6.26366 6.63616 0.294128 14 0.294128ZM14.2129 18.9608C11.499 18.9608 9.05572 20.1191 7.35031 21.9683C9.17381 23.424 11.4853 24.2941 14 24.2941C16.626 24.2941 19.0302 23.3452 20.8888 21.7716C19.1941 20.0373 16.8292 18.9608 14.2129 18.9608ZM14 2.96079C8.10892 2.96079 3.33329 7.73642 3.33329 13.6275C3.33329 16.0416 4.13529 18.2684 5.48739 20.056C7.67515 17.7396 10.7752 16.2941 14.2129 16.2941C17.5254 16.2941 20.5244 17.6363 22.6957 19.8064C23.9368 18.0631 24.6666 15.9305 24.6666 13.6275C24.6666 7.73642 19.891 2.96079 14 2.96079ZM14 4.29413C16.9454 4.29413 19.3333 6.68194 19.3333 9.62746C19.3333 12.5729 16.9454 14.9608 14 14.9608C11.0544 14.9608 8.66663 12.5729 8.66663 9.62746C8.66663 6.68194 11.0544 4.29413 14 4.29413ZM14 6.96079C12.5272 6.96079 11.3333 8.1547 11.3333 9.62746C11.3333 11.1003 12.5272 12.2941 14 12.2941C15.4728 12.2941 16.6666 11.1003 16.6666 9.62746C16.6666 8.1547 15.4728 6.96079 14 6.96079Z" fill="white"/>
</svg>
