<svg width="27" height="26" viewBox="0 0 27 26" fill="none" xmlns="http://www.w3.org/2000/svg">
<path d="M4.15146 15.8729C3.28342 17.9828 3.28332 20.3659 4.15146 22.4759C6.26147 23.3441 8.64461 23.344 10.7546 22.476L8.62443 20.3458C7.85613 20.4989 7.05946 20.5011 6.28089 20.3465C6.12627 19.5679 6.12853 18.7713 6.28155 18.003L4.15146 15.8729ZM6.69431 8.61938L2.67021 8.87224L0.853325 10.6891L15.9383 25.7741L17.7552 23.9572L18.008 19.9331L23.4808 14.4603C26.7648 11.1763 27.1974 6.02128 24.9372 1.69019C20.6061 -0.570069 15.4511 -0.137405 12.1671 3.14663L6.69431 8.61938ZM5.31357 11.3781L7.86735 11.2176L14.0527 5.03225C16.238 2.84697 19.7107 2.33613 22.9348 3.69258C24.2913 6.91669 23.7804 10.3894 21.5951 12.5747L15.4098 18.76L15.2493 21.3139L5.31357 11.3781ZM15.9383 10.6891C16.9797 11.7306 18.6682 11.7305 19.7095 10.6891C20.7509 9.64771 20.751 7.9593 19.7095 6.91787C18.6681 5.87644 16.9797 5.87647 15.9383 6.91787C14.8969 7.95922 14.8968 9.6477 15.9383 10.6891Z" fill="white"/>
</svg>
