<svg width="28" height="28" viewBox="0 0 28 28" fill="none" xmlns="http://www.w3.org/2000/svg">
<path d="M22.0413 19.7832L27.7516 25.4935L25.866 27.3791L20.1557 21.6688C18.1025 23.3115 15.4986 24.2941 12.6666 24.2941C6.04263 24.2941 0.666626 18.9181 0.666626 12.2941C0.666626 5.67013 6.04263 0.294128 12.6666 0.294128C19.2906 0.294128 24.6666 5.67013 24.6666 12.2941C24.6666 15.1261 23.684 17.73 22.0413 19.7832ZM19.3662 18.7939C20.9966 17.1136 22 14.8216 22 12.2941C22 7.13746 17.8233 2.96079 12.6666 2.96079C7.50996 2.96079 3.33329 7.13746 3.33329 12.2941C3.33329 17.4508 7.50996 21.6275 12.6666 21.6275C15.1941 21.6275 17.4861 20.6241 19.1664 18.9937L19.3662 18.7939Z" fill="white"/>
</svg>
