<svg width="12" height="12" viewBox="0 0 12 12" fill="none" xmlns="http://www.w3.org/2000/svg">
<path d="M3.80735 2.42704C3.82204 2.30408 4.00145 2.30408 4.01614 2.42704L4.13921 3.45858C4.29813 4.79056 5.35413 5.84073 6.69349 5.99878L7.73074 6.12117C7.8544 6.13578 7.8544 6.3142 7.73074 6.3288L6.69349 6.4512C5.35413 6.60924 4.29813 7.65941 4.13921 8.99139L4.01614 10.0229C4.00145 10.1459 3.82204 10.1459 3.80735 10.0229L3.68428 8.99139C3.52536 7.65941 2.46936 6.60924 1.12999 6.4512L0.0927324 6.3288C-0.0309108 6.3142 -0.0309108 6.13578 0.0927324 6.12117L1.12999 5.99878C2.46936 5.84073 3.52536 4.79056 3.68428 3.45858L3.80735 2.42704Z" fill="white"/>
<path d="M9.3226 0.478381C9.33239 0.396407 9.452 0.396407 9.46179 0.478381L9.54384 1.16607C9.64978 2.05406 10.3538 2.75417 11.2467 2.85954L11.9382 2.94113C12.0206 2.95087 12.0206 3.06982 11.9382 3.07955L11.2467 3.16115C10.3538 3.26651 9.64978 3.96663 9.54384 4.85461L9.46179 5.5423C9.452 5.62428 9.33239 5.62428 9.3226 5.5423L9.24055 4.85461C9.1346 3.96663 8.4306 3.26651 7.53769 3.16115L6.84618 3.07955C6.76376 3.06982 6.76376 2.95087 6.84618 2.94113L7.53769 2.85954C8.4306 2.75417 9.1346 2.05406 9.24055 1.16607L9.3226 0.478381Z" fill="white"/>
<path d="M8.60287 7.07628C8.61148 7.0042 8.71665 7.0042 8.72526 7.07628L8.7974 7.68097C8.89057 8.46179 9.5096 9.0774 10.2947 9.17005L10.9028 9.2418C10.9753 9.25036 10.9753 9.35495 10.9028 9.36351L10.2947 9.43526C9.5096 9.52791 8.89057 10.1435 8.7974 10.9243L8.72526 11.529C8.71665 11.6011 8.61148 11.6011 8.60287 11.529L8.53072 10.9243C8.43756 10.1435 7.81853 9.52791 7.03338 9.43526L6.42533 9.36351C6.35285 9.35495 6.35285 9.25036 6.42533 9.2418L7.03338 9.17005C7.81853 9.0774 8.43756 8.46179 8.53072 7.68097L8.60287 7.07628Z" fill="white"/>
</svg>
